<?xml version="1.0" standalone="no"?>
<!DOCTYPE svg PUBLIC "-//W3C//DTD SVG 20010904//EN"
 "http://www.w3.org/TR/2001/REC-SVG-20010904/DTD/svg10.dtd">
<svg version="1.0" xmlns="http://www.w3.org/2000/svg"
 width="1000.000000pt" height="1000.000000pt" viewBox="0 0 1000.000000 1000.000000"
 preserveAspectRatio="xMidYMid meet">
<metadata>
Created by potrace 1.11, written by Peter Selinger 2001-2013
</metadata>
<g transform="translate(0.000000,1000.000000) scale(0.100000,-0.100000)"
fill="#000000" stroke="none">
<path d="M4768 9405 c-2 -2 -46 -6 -98 -10 -52 -3 -106 -8 -120 -10 -14 -2
-54 -7 -90 -10 -36 -4 -74 -9 -85 -11 -10 -2 -37 -6 -60 -10 -72 -10 -248 -45
-310 -61 -33 -8 -67 -16 -75 -18 -8 -2 -33 -8 -55 -14 -383 -98 -823 -285
-1160 -494 -142 -88 -381 -255 -470 -328 -262 -217 -438 -393 -674 -674 -106
-127 -299 -410 -402 -589 -130 -228 -266 -535 -351 -791 -37 -114 -92 -303
-102 -356 -2 -13 -10 -46 -16 -74 -6 -27 -14 -59 -16 -70 -3 -11 -7 -33 -9
-50 -3 -16 -7 -41 -10 -55 -9 -40 -34 -210 -40 -270 -4 -30 -8 -68 -10 -85
-24 -181 -23 -665 1 -860 2 -16 6 -59 9 -95 4 -36 8 -72 10 -80 2 -8 7 -37 11
-65 3 -27 7 -57 9 -65 44 -233 41 -217 55 -270 7 -25 14 -56 17 -70 7 -43 62
-230 99 -340 120 -353 301 -721 508 -1030 242 -363 485 -634 857 -955 48 -42
234 -181 329 -247 133 -92 322 -204 475 -281 114 -58 166 -83 300 -142 126
-56 395 -148 555 -191 89 -24 105 -28 155 -38 11 -2 50 -11 87 -20 37 -8 95
-20 130 -26 35 -5 74 -12 88 -14 45 -8 99 -16 152 -22 29 -3 64 -7 78 -10 159
-25 744 -25 935 1 17 2 59 7 95 10 36 4 67 9 70 10 3 2 30 6 60 10 30 3 71 10
90 15 19 5 55 12 80 15 25 3 72 13 105 22 33 8 71 17 85 20 88 16 348 97 514
160 1139 432 2052 1320 2516 2444 65 157 180 500 194 579 2 14 9 39 16 55 6
17 11 31 10 33 -1 2 10 72 15 92 7 28 26 122 30 150 3 19 8 42 10 50 2 8 7 40
10 70 3 30 8 62 10 70 2 8 7 50 10 93 4 43 8 88 10 99 21 107 21 641 0 803 -2
17 -9 73 -15 125 -13 111 -35 244 -56 350 -9 41 -18 86 -20 100 -23 126 -137
486 -220 689 -57 141 -208 451 -244 501 -11 15 -20 30 -20 33 0 9 -81 139
-153 247 -164 246 -321 435 -546 661 -184 183 -295 280 -481 420 -466 350
-1048 625 -1600 754 -24 6 -163 36 -185 41 -11 2 -31 6 -45 9 -14 3 -42 8 -64
11 -21 3 -48 8 -60 10 -11 2 -41 7 -66 10 -25 3 -56 7 -70 9 -14 2 -56 7 -95
10 -38 4 -86 9 -105 12 -37 5 -587 12 -592 8z m557 -809 c22 -3 65 -8 95 -11
104 -12 119 -14 220 -31 236 -40 551 -134 786 -235 541 -231 1048 -616 1405
-1069 277 -352 470 -703 604 -1104 42 -126 107 -369 119 -446 3 -19 8 -46 11
-60 3 -14 7 -38 9 -55 3 -16 7 -43 10 -60 5 -30 14 -100 21 -166 2 -20 7 -81
10 -136 l5 -100 -137 -140 c-160 -161 -200 -198 -343 -314 -485 -393 -1056
-682 -1685 -854 -129 -35 -318 -79 -385 -90 -19 -3 -59 -10 -88 -16 -29 -6
-65 -12 -80 -14 -185 -24 -277 -35 -327 -40 -33 -3 -73 -8 -90 -10 -168 -21
-749 -22 -930 0 -16 1 -67 6 -113 10 -45 3 -93 8 -105 10 -12 2 -47 6 -77 10
-30 4 -64 9 -75 10 -11 2 -40 7 -65 10 -25 3 -52 8 -60 10 -8 3 -31 6 -50 9
-56 7 -305 63 -425 95 -754 200 -1456 591 -1978 1100 -60 58 -132 132 -160
164 -45 52 -50 63 -48 100 6 105 20 264 26 287 2 8 7 40 10 70 4 30 15 100 26
155 71 349 183 671 340 973 60 114 191 336 208 352 4 3 11 12 16 21 35 56 73
108 146 200 503 632 1190 1078 1955 1267 65 17 137 33 159 38 22 4 45 8 50 9
87 20 258 42 380 51 55 3 101 8 103 9 6 5 463 -3 507 -9z m-3337 -4977 c193
-115 393 -217 642 -327 173 -76 610 -227 745 -257 11 -2 74 -17 140 -34 177
-44 397 -86 611 -116 156 -22 371 -41 554 -51 100 -5 588 -5 670 1 150 9 247
17 285 21 129 13 264 30 325 39 14 2 43 6 65 10 23 3 52 8 65 10 14 3 41 8 60
11 115 17 399 82 550 125 228 65 637 211 735 263 17 9 33 16 37 16 4 0 72 31
151 69 249 121 500 267 714 417 59 40 108 72 110 70 13 -13 -151 -405 -238
-571 -234 -444 -578 -856 -974 -1166 -354 -278 -790 -501 -1217 -625 -115 -33
-302 -77 -385 -90 -19 -3 -44 -7 -55 -9 -11 -3 -46 -7 -77 -11 -31 -3 -65 -8
-76 -10 -129 -25 -673 -25 -840 1 -16 2 -66 9 -110 16 -44 6 -89 13 -100 15
-305 58 -599 148 -835 257 -147 67 -176 82 -286 143 -306 170 -545 353 -805
613 -383 385 -662 823 -843 1327 -20 56 -36 104 -36 108 0 3 64 -37 143 -90
78 -53 202 -132 275 -175z"/>
</g>
</svg>
